<svg width="34" height="38" viewBox="0 0 34 38" fill="none" xmlns="http://www.w3.org/2000/svg">
<path d="M32.0549 8.77037L17.5069 0.267447C16.898 -0.0891491 16.142 -0.0891491 15.5332 0.267447L11.7499 2.47973L8.32928 4.47736V22.733C8.32928 23.3804 8.67135 23.9863 9.22891 24.3118L15.6187 28.0439C15.8958 28.2101 16.207 28.2897 16.5217 28.2897C16.8364 28.2897 17.1443 28.2101 17.4214 28.0474L23.8111 24.3152C24.3687 23.9898 24.7142 23.3839 24.7142 22.733V15.2653C24.7142 14.6144 24.3687 14.0085 23.8111 13.6866L17.4214 9.95094C16.8638 9.62551 16.1728 9.62551 15.6187 9.95094L11.7499 12.2117V6.47499L16.5217 3.688L29.6228 11.3427V26.6556L16.5217 34.3103L3.42065 26.6556V7.34744L0 9.34507V27.5003C0 28.2135 0.376272 28.8748 0.985147 29.2314L15.5332 37.7308C15.8376 37.9109 16.1797 38.0009 16.5217 38.0009C16.8638 38.0009 17.2024 37.9109 17.5069 37.7343L32.0549 29.2314C32.6638 28.8748 33.0435 28.2135 33.0435 27.5003V10.498C33.0435 9.78822 32.6638 9.1235 32.0549 8.77037ZM16.5217 13.4234L21.2935 16.2104V21.7879L16.5217 24.5749L11.7499 21.7879V16.2104L16.5217 13.4234Z" fill="white"/>
</svg>
